<svg width="256" height="256" viewBox="0 0 48 48" fill="none"
	xmlns="http://www.w3.org/2000/svg">
	<path d="M48 24.1255C48 20.9298 44.0179 17.9013 37.9128 16.0232C39.3216 9.76949 38.6955 4.79403 35.9364 3.2011C35.3004 2.82745 34.5569 2.65046 33.7448 2.65046V4.8432C34.1949 4.8432 34.5569 4.93169 34.8602 5.09885C36.1908 5.86582 36.768 8.7862 36.318 12.5424C36.2104 13.4667 36.0342 14.4401 35.819 15.4332C33.9013 14.9613 31.8076 14.5974 29.6062 14.3615C28.2854 12.5424 26.9156 10.8904 25.5361 9.445C28.7256 6.46563 31.7195 4.83336 33.7546 4.83336V2.64062C31.064 2.64062 27.5418 4.56788 23.9804 7.91107C20.4191 4.58754 16.8969 2.67996 14.2063 2.67996V4.8727C16.2316 4.8727 19.2352 6.49513 22.4248 9.45483C21.055 10.9003 19.6853 12.5424 18.384 14.3615C16.1729 14.5974 14.0791 14.9613 12.1614 15.4431C11.9364 14.4598 11.7701 13.506 11.6527 12.5915C11.1928 8.83536 11.7603 5.91499 13.0811 5.13819C13.3746 4.96119 13.7562 4.88253 14.2063 4.88253V2.68979C13.3844 2.68979 12.6408 2.86678 11.9951 3.24043C9.24582 4.83336 8.62943 9.79899 10.0481 16.0331C3.96249 17.921 0 20.9397 0 24.1255C0 27.3212 3.98206 30.3498 10.0872 32.2279C8.67835 38.4816 9.30453 43.457 12.0636 45.05C12.6996 45.4236 13.4431 45.6006 14.265 45.6006C16.9556 45.6006 20.4778 43.6734 24.0391 40.3302C27.6005 43.6537 31.1227 45.5613 33.8133 45.5613C34.6351 45.5613 35.3787 45.3843 36.0245 45.0106C38.7738 43.4177 39.3901 38.4521 37.9715 32.218C44.0375 30.3399 48 27.3114 48 24.1255ZM35.2613 17.567C34.8993 18.8354 34.4492 20.1432 33.9405 21.451C33.5393 20.6644 33.1186 19.8777 32.6588 19.0911C32.2087 18.3045 31.7293 17.5375 31.2499 16.7902C32.6392 16.9967 33.9796 17.2523 35.2613 17.567ZM30.7803 28.039C30.0171 29.3665 29.2344 30.6251 28.4223 31.7952C26.9645 31.923 25.4872 31.9919 24 31.9919C22.5226 31.9919 21.0453 31.923 19.5972 31.805C18.7852 30.6349 17.9927 29.3861 17.2295 28.0685C16.4859 26.7804 15.8108 25.4726 15.1945 24.155C15.8011 22.8374 16.4859 21.5198 17.2197 20.2317C17.9829 18.9043 18.7656 17.6456 19.5777 16.4755C21.0355 16.3477 22.5128 16.2789 24 16.2789C25.4774 16.2789 26.9548 16.3477 28.4028 16.4657C29.2148 17.6358 30.0073 18.8846 30.7705 20.2022C31.5141 21.4903 32.1892 22.7981 32.8055 24.1157C32.1892 25.4333 31.5141 26.7509 30.7803 28.039ZM33.9405 26.7608C34.4688 28.0784 34.9189 29.396 35.2907 30.6743C34.009 30.9889 32.6588 31.2544 31.2597 31.4609C31.7391 30.7038 32.2185 29.927 32.6686 29.1305C33.1186 28.3439 33.5393 27.5474 33.9405 26.7608ZM24.0196 37.2525C23.1097 36.3085 22.1998 35.2564 21.2996 34.1059C22.1802 34.1453 23.0803 34.1748 23.9902 34.1748C24.9099 34.1748 25.8198 34.1551 26.7102 34.1059C25.8296 35.2564 24.9197 36.3085 24.0196 37.2525ZM16.7403 31.4609C15.351 31.2544 14.0106 30.9987 12.7289 30.6841C13.0909 29.4156 13.541 28.1079 14.0497 26.8001C14.4509 27.5867 14.8716 28.3734 15.3314 29.16C15.7913 29.9466 16.2609 30.7136 16.7403 31.4609ZM23.9707 10.9986C24.8806 11.9426 25.7905 12.9947 26.6906 14.1451C25.81 14.1058 24.9099 14.0763 24 14.0763C23.0803 14.0763 22.1704 14.096 21.2801 14.1451C22.1606 12.9947 23.0705 11.9426 23.9707 10.9986ZM16.7305 16.7902C16.2511 17.5473 15.7717 18.3241 15.3216 19.1206C14.8716 19.9072 14.4509 20.6939 14.0497 21.4805C13.5214 20.1629 13.0713 18.8453 12.6996 17.567C13.9812 17.2622 15.3314 16.9967 16.7305 16.7902ZM7.87607 29.101C4.41256 27.6162 2.17203 25.6693 2.17203 24.1255C2.17203 22.5818 4.41256 20.625 7.87607 19.1501C8.71749 18.7863 9.63718 18.4618 10.5862 18.157C11.1439 20.0842 11.8777 22.0901 12.7876 24.1452C11.8875 26.1905 11.1635 28.1865 10.6156 30.1039C9.64697 29.7991 8.72727 29.4648 7.87607 29.101ZM13.1398 43.1522C11.8092 42.3853 11.232 39.4649 11.682 35.7087C11.7896 34.7844 11.9658 33.811 12.181 32.8178C14.0987 33.2898 16.1924 33.6536 18.3938 33.8896C19.7146 35.7087 21.0844 37.3606 22.4639 38.8061C19.2744 41.7854 16.2805 43.4177 14.2454 43.4177C13.8051 43.4079 13.4333 43.3194 13.1398 43.1522ZM36.3473 35.6595C36.8072 39.4157 36.2397 42.3361 34.9189 43.1129C34.6254 43.2899 34.2438 43.3685 33.7937 43.3685C31.7684 43.3685 28.7648 41.7461 25.5752 38.7864C26.945 37.341 28.3147 35.6989 29.616 33.8798C31.8272 33.6438 33.9209 33.28 35.8386 32.7982C36.0636 33.7913 36.2397 34.7451 36.3473 35.6595ZM40.1141 29.101C39.2727 29.4648 38.353 29.7893 37.404 30.0941C36.8463 28.1669 36.1125 26.161 35.2026 24.1059C36.1027 22.0606 36.8267 20.0645 37.3746 18.1471C38.3433 18.4519 39.2629 18.7863 40.1239 19.1501C43.5874 20.6349 45.828 22.5818 45.828 24.1255C45.8182 25.6693 43.5777 27.6261 40.1141 29.101Z" fill="#61DAFB"/>
	<path d="M23.9999 28.5607C26.5184 28.5607 28.5599 26.5728 28.5599 24.1207C28.5599 21.6685 26.5184 19.6807 23.9999 19.6807C21.4815 19.6807 19.4399 21.6685 19.4399 24.1207C19.4399 26.5728 21.4815 28.5607 23.9999 28.5607Z" fill="#61DAFB"/>
	<title>ReactJS</title>
</svg>
